<svg xmlns="http://www.w3.org/2000/svg" height="1200" width="1600" version="1.1" xmlns:xlink="http://www.w3.org/1999/xlink" xmlns:svgjs="http://svgjs.com/svgjs"><rect fill="#f3ebe9" width="1600" height="1200"></rect><g><path d="M447.74 289.12L422.67 374.25 495.36 312.85 584.19 346.16 531.7 267.59 595.97 204.83 505.11 224.85 452.45 154.86 453.29 239.49 360.43 251.77 447.74 289.12Z" fill="#000000" opacity="0.2" stroke-width="4" stroke="none"></path><path d="M447.74 264.75L422.67 349.88 495.36 288.47 584.19 321.79 531.7 243.22 595.97 180.46 505.11 200.48 452.45 130.49 453.29 215.12 360.43 227.4 447.74 264.75Z" fill="#ffc930" opacity="1" stroke-width="4" stroke="none"></path></g><g><path d="M833.71 203.1L1226.28 631.36 404.56 851.21 833.71 203.1Z" fill="#3c2c5b" opacity="1" stroke-width="4" stroke="none"></path></g><g><path d="M570.51 380.76L907.74 282.21C962.51 266.21 1019.82 297.59 1035.82 352.37L1134.37 689.6C1150.38 744.37 1118.99 801.67 1064.22 817.68L726.99 916.22C672.21 932.23 614.91 900.84 598.9 846.07L500.36 508.84C484.35 454.07 515.85 396.73 570.51 380.76Z" fill="#ffa0dc" opacity="1" stroke-width="4" stroke="none"></path></g><g><path d="M1313.63 381.55C1328.48 381.55 1340.51 369.51 1340.51 354.67 1340.51 339.82 1328.48 327.79 1313.63 327.79 1298.79 327.79 1286.76 339.82 1286.76 354.67 1286.76 369.51 1298.79 381.55 1313.63 381.55Z" fill="#ffc930" opacity="1" stroke-width="4" stroke="none"></path></g><g><path d="M583.07 1056.58L624.41 974.64 542.4 933.26 501.06 1015.2 583.07 1056.58Z" fill="#000000" opacity="0.2" stroke-width="4" stroke="none"></path><path d="M599.8 1051.13L641.14 969.19 559.12 927.81 517.78 1009.75 599.8 1051.13Z" fill="#3c2c5b" opacity="1" stroke-width="4" stroke="none"></path></g><g><path d="M281.34 614.65C289.44 608.75 291.22 597.4 285.31 589.3 279.41 581.21 268.06 579.43 259.96 585.33 251.87 591.24 250.09 602.59 256 610.68 261.9 618.78 273.25 620.55 281.34 614.65Z" fill="#61ccff" opacity="1" stroke-width="4" stroke="none"></path></g><g><path d="M981.24 505.11L1007.64 578.74 908.17 599.2 892.97 525.3 981.24 505.11Z" fill="#3c2c5b" opacity="1" stroke-width="4" stroke="none"></path><path d="M838.95 539.49L982.61 509.93C989.44 508.52 995.41 501.52 995.94 494.3 996.47 487.07 991.38 482.44 984.65 483.83L840.89 513.41C834.06 514.81 828.1 521.81 827.55 528.95 827.01 536.17 832.12 540.89 838.95 539.49Z" fill="#61ccff" opacity="1" stroke-width="4" stroke="none"></path><path d="M877.27 600.46L869.9 696.43 967.98 676.24 975.35 580.28 877.27 600.46Z" fill="#61ccff" opacity="1" stroke-width="4" stroke="none"></path><path d="M1036.98 602.61C1037.71 587.45 1026.11 574.55 1010.84 573.75 1008.52 573.65 1006.25 573.83 1003.94 574.3L975.24 580.21 967.87 676.17 1032.46 662.88 1036.98 602.61Z" fill="#61ccff" opacity="1" stroke-width="4" stroke="none"></path><path d="M1036.97 602.82C1028.76 604.51 1021.54 612.92 1020.92 621.61 1020.31 630.29 1026.38 635.97 1034.59 634.28L1036.97 602.82Z" fill="#ffa0dc" opacity="1" stroke-width="4" stroke="none"></path><path d="M660.7 498.17L641.99 743.32 729.93 725.23 748.72 480.06 660.7 498.17Z" fill="#61ccff" opacity="1" stroke-width="4" stroke="none"></path><path d="M748.72 480.06L729.93 725.23 817.95 707.12 836.65 461.96 748.72 480.06Z" fill="#61ccff" opacity="1" stroke-width="4" stroke="none"></path><path d="M836.65 461.96L817.95 707.12 905.97 689 924.68 443.85 836.65 461.96Z" fill="#61ccff" opacity="1" stroke-width="4" stroke="none"></path><path d="M641.99 743.32L905.97 689 910.69 626.38 646.71 680.71 641.99 743.32Z" fill="#3c2c5b" opacity="1" stroke-width="4" stroke="none"></path><path d="M744.52 745.95C758.15 728.16 758.36 705.42 744.97 695.17 731.59 684.92 709.69 691.04 696.05 708.84 682.42 726.64 682.22 749.38 695.6 759.63 708.98 769.88 730.88 763.75 744.52 745.95Z" fill="#171b1d" opacity="1" stroke-width="4" stroke="none"></path><path d="M726.72 732.32C730.36 727.57 730.43 721.51 726.87 718.8 723.32 716.08 717.49 717.72 713.85 722.47 710.21 727.22 710.14 733.27 713.7 735.99 717.25 738.72 723.08 737.07 726.72 732.32Z" fill="#3c2c5b" opacity="1" stroke-width="4" stroke="none"></path><path d="M975.11 580.3L968.1 676.19" stroke="#121212" stroke-width="4" stroke-linecap="round" stroke-linejoin="round" opacity="1" fill="none"></path><path d="M988.74 695.81C1002.37 678.01 1002.58 655.27 989.19 645.02 975.81 634.77 953.91 640.89 940.27 658.69 926.64 676.49 926.44 699.23 939.82 709.48 953.2 719.74 975.1 713.61 988.74 695.81Z" fill="#171b1d" opacity="1" stroke-width="4" stroke="none"></path><path d="M970.94 682.17C974.58 677.42 974.64 671.37 971.09 668.65 967.54 665.93 961.71 667.58 958.08 672.33 954.44 677.08 954.36 683.13 957.92 685.86 961.48 688.58 967.3 686.92 970.94 682.17Z" fill="#3c2c5b" opacity="1" stroke-width="4" stroke="none"></path><path d="M936.13 620.09L952.83 616.65" stroke="#121212" stroke-width="4" stroke-linecap="round" stroke-linejoin="round" opacity="1" fill="none"></path><path d="M920.96 495.88L906.16 688.97" stroke="#121212" stroke-width="4" stroke-linecap="round" stroke-linejoin="round" opacity="1" fill="none"></path><path d="M837.26 463.95L823.42 644.44" stroke="#121212" stroke-width="4" stroke-linecap="round" stroke-linejoin="round" opacity="1" fill="none"></path><path d="M747.57 482.41L733.74 662.89" stroke="#121212" stroke-width="4" stroke-linecap="round" stroke-linejoin="round" opacity="1" fill="none"></path></g><g><path d="M423.27 518.04C436.99 518.04 448.11 506.92 448.11 493.2 448.11 479.49 436.99 468.37 423.27 468.37 409.55 468.37 398.44 479.49 398.44 493.2 398.44 506.92 409.55 518.04 423.27 518.04Z" stroke="#000000" stroke-width="4" stroke-linecap="round" stroke-linejoin="round" opacity="1" fill="none"></path></g></svg>